<svg width="192" height="192" viewBox="0 0 192 192" xmlns="http://www.w3.org/2000/svg">
  <defs>
    <linearGradient id="gradient" x1="0%" y1="0%" x2="100%" y2="100%">
      <stop offset="0%" style="stop-color:#1B365D;stop-opacity:1" />
      <stop offset="100%" style="stop-color:#2B4A73;stop-opacity:1" />
    </linearGradient>
  </defs>
  
  <!-- Background -->
  <rect width="192" height="192" rx="20" fill="url(#gradient)"/>
  
  <!-- Watch icon -->
  <g transform="translate(50, 45)">
    <!-- Watch case -->
    <circle cx="46" cy="46" r="35" fill="#FFD700" stroke="#FFA500" stroke-width="2"/>
    <circle cx="46" cy="46" r="28" fill="#FFFFFF" stroke="#E0E0E0" stroke-width="1"/>
    
    <!-- Watch hands -->
    <line x1="46" y1="46" x2="46" y2="25" stroke="#1B365D" stroke-width="3" stroke-linecap="round"/>
    <line x1="46" y1="46" x2="60" y2="46" stroke="#1B365D" stroke-width="2" stroke-linecap="round"/>
    
    <!-- Watch markers -->
    <circle cx="46" cy="20" r="2" fill="#1B365D"/>
    <circle cx="70" cy="46" r="2" fill="#1B365D"/>
    <circle cx="46" cy="72" r="2" fill="#1B365D"/>
    <circle cx="22" cy="46" r="2" fill="#1B365D"/>
    
    <!-- Center dot -->
    <circle cx="46" cy="46" r="3" fill="#1B365D"/>
    
    <!-- Watch band -->
    <rect x="40" y="10" width="12" height="15" rx="6" fill="#8B4513"/>
    <rect x="40" y="67" width="12" height="15" rx="6" fill="#8B4513"/>
  </g>
  
  <!-- Perfume bottle icon -->
  <g transform="translate(60, 120)">
    <!-- Bottle body -->
    <rect x="20" y="15" width="30" height="40" rx="5" fill="#E6E6FA" stroke="#9370DB" stroke-width="2"/>
    
    <!-- Bottle neck -->
    <rect x="28" y="5" width="14" height="15" fill="#E6E6FA" stroke="#9370DB" stroke-width="2"/>
    
    <!-- Cap -->
    <rect x="26" y="0" width="18" height="8" rx="4" fill="#FFD700" stroke="#FFA500" stroke-width="2"/>
    
    <!-- Label -->
    <rect x="24" y="25" width="22" height="8" fill="#FFFFFF" opacity="0.8"/>
    
    <!-- Sparkles -->
    <circle cx="15" cy="20" r="1.5" fill="#FFD700"/>
    <circle cx="55" cy="30" r="1.5" fill="#FFD700"/>
    <circle cx="10" cy="40" r="1" fill="#FFFFFF"/>
  </g>
  
  <!-- Arabic text styling -->
  <text x="96" y="175" text-anchor="middle" font-family="Arial, sans-serif" font-size="12" font-weight="bold" fill="#FFFFFF">المستودع</text>
</svg>